<svg xmlns="http://www.w3.org/2000/svg" xmlns:xlink="http://www.w3.org/1999/xlink" viewBox="0 0 106 106"><defs><style>.cls-1{fill:url(#Degradado_sin_nombre_2);}.cls-2{fill:url(#Degradado_sin_nombre_2-2);}</style><linearGradient id="Degradado_sin_nombre_2" y1="53" x2="106" y2="53" gradientUnits="userSpaceOnUse"><stop offset="0" stop-color="#573280"/><stop offset="1" stop-color="#23022e"/></linearGradient><linearGradient id="Degradado_sin_nombre_2-2" x1="23.21" y1="54.81" x2="82.89" y2="54.81" xlink:href="#Degradado_sin_nombre_2"/></defs><title>Recurso 4</title><g id="Capa_2" data-name="Capa 2"><g id="resumen"><g id="resumen-2" data-name="resumen"><g id="Check_Circle" data-name="Check Circle"><path class="cls-1" d="M53,0a53,53,0,1,0,53,53A53,53,0,0,0,53,0Zm0,99.37A46.37,46.37,0,1,1,99.37,53,46.37,46.37,0,0,1,53,99.37Z"/><path class="cls-2" d="M77.18,34.43,43.1,68.2,28.92,54.3a3.37,3.37,0,0,0-4.73,0,3.29,3.29,0,0,0,0,4.69L40.75,75.21a3.42,3.42,0,0,0,4.73,0l36.43-36.1a3.28,3.28,0,0,0,0-4.68A3.36,3.36,0,0,0,77.18,34.43Z"/></g></g></g></g></svg>