<svg xmlns="http://www.w3.org/2000/svg" viewBox="0 0 29.67 29.67"><defs><style>.cls-1{fill:#573280;}</style></defs><title>Recurso 7</title><g id="Capa_2" data-name="Capa 2"><g id="registro"><g id="top-bar"><g id="cancel-button"><g id="Cancel"><path class="cls-1" d="M14.84,0A14.84,14.84,0,1,0,29.67,14.84,14.83,14.83,0,0,0,14.84,0Zm0,27.82a13,13,0,1,1,13-13A13,13,0,0,1,14.84,27.82Z"/><path class="cls-1" d="M21.08,19.72l-4.89-4.88L21.05,10a.91.91,0,0,0,0-1.31,1,1,0,0,0-1.33,0l-4.85,4.81L10,8.6A.93.93,0,1,0,8.63,9.92l4.91,4.92L8.6,19.74a.92.92,0,0,0,0,1.32.94.94,0,0,0,1.32,0l4.94-4.9,4.89,4.89a.94.94,0,0,0,1.33,0A1,1,0,0,0,21.08,19.72Z"/></g></g></g></g></g></svg>