<svg xmlns="http://www.w3.org/2000/svg" viewBox="0 0 139.17 33.25"><defs><style>.cls-1{fill:#e3e4e5;}</style></defs><title>Recurso 2</title><g id="Capa_2" data-name="Capa 2"><g id="index"><g id="top-bar"><g id="logo"><path class="cls-1" d="M34.51,21.14v-9h3.32a6.11,6.11,0,0,1,1.59.18,3,3,0,0,1,1.07.49,1.86,1.86,0,0,1,.61.76,2.75,2.75,0,0,1,.18,1,1.78,1.78,0,0,1-.35,1.12,2.6,2.6,0,0,1-.48.45,3.51,3.51,0,0,1-.7.35,2.52,2.52,0,0,1,1.32.7,1.84,1.84,0,0,1,.42,1.25,2.56,2.56,0,0,1-.22,1.07,2.37,2.37,0,0,1-.65.86,3.09,3.09,0,0,1-1.06.58,4.61,4.61,0,0,1-1.45.21Zm2.09-5.23h1.09a4,4,0,0,0,.63-.05,1.31,1.31,0,0,0,.47-.17.89.89,0,0,0,.3-.34,1.29,1.29,0,0,0,.1-.55,1.6,1.6,0,0,0-.08-.53.75.75,0,0,0-.25-.35.9.9,0,0,0-.42-.18,2.74,2.74,0,0,0-.61-.06H36.6Zm0,1.4v2.25h1.48a1.8,1.8,0,0,0,.67-.11,1.09,1.09,0,0,0,.42-.27.93.93,0,0,0,.2-.38,1.54,1.54,0,0,0,.06-.43,1.5,1.5,0,0,0-.07-.44.83.83,0,0,0-.22-.34,1.18,1.18,0,0,0-.42-.21,2.42,2.42,0,0,0-.66-.07Z"/><path class="cls-1" d="M47.2,17.8v3.34H45.11v-9h2.94a6.21,6.21,0,0,1,1.67.2,3.35,3.35,0,0,1,1.12.56,2.18,2.18,0,0,1,.64.85,2.87,2.87,0,0,1,.2,1.07,2.82,2.82,0,0,1-.12.83,2.67,2.67,0,0,1-.35.72,2.89,2.89,0,0,1-.57.59,3.08,3.08,0,0,1-.78.43,2.48,2.48,0,0,1,.4.26,1.47,1.47,0,0,1,.31.38l1.92,3.14H50.6a.83.83,0,0,1-.76-.4l-1.5-2.62a.56.56,0,0,0-.23-.25.76.76,0,0,0-.37-.07Zm0-1.44h.85a2.29,2.29,0,0,0,.73-.11,1.4,1.4,0,0,0,.49-.3,1.18,1.18,0,0,0,.28-.45,2,2,0,0,0,.08-.56,1.21,1.21,0,0,0-.38-.93,1.83,1.83,0,0,0-1.2-.33H47.2Z"/><path class="cls-1" d="M64.22,21.14H62.6a.8.8,0,0,1-.45-.13.61.61,0,0,1-.24-.33l-.53-1.57H57.94l-.53,1.57a.71.71,0,0,1-.24.32.72.72,0,0,1-.44.14H55.1l3.49-9h2.14Zm-5.79-3.45h2.46l-.83-2.47c-.05-.16-.11-.35-.19-.56s-.14-.44-.21-.69c-.07.25-.13.49-.2.7l-.2.56Z"/><path class="cls-1" d="M68.76,12.13a.43.43,0,0,1,.17,0,.45.45,0,0,1,.14.1.89.89,0,0,1,.16.17l4.28,5.41c0-.17,0-.34,0-.5s0-.32,0-.46V12.11h1.85v9H74.22a1,1,0,0,1-.41-.08.87.87,0,0,1-.32-.27l-4.26-5.38c0,.16,0,.31,0,.47s0,.29,0,.42v4.84H67.43v-9h1.1Z"/><path class="cls-1" d="M87.46,16.62a4.67,4.67,0,0,1-.34,1.81,4.12,4.12,0,0,1-1,1.43,4.47,4.47,0,0,1-1.47.94,5.37,5.37,0,0,1-1.92.34H79.27v-9h3.51a5.37,5.37,0,0,1,1.92.34,4.33,4.33,0,0,1,1.47,1,4.08,4.08,0,0,1,1,1.42A4.62,4.62,0,0,1,87.46,16.62Zm-2.14,0a3.84,3.84,0,0,0-.18-1.21,2.56,2.56,0,0,0-.49-.91,2.32,2.32,0,0,0-.8-.58,2.76,2.76,0,0,0-1.07-.2h-1.4v5.81h1.4a2.76,2.76,0,0,0,1.07-.2,2.32,2.32,0,0,0,.8-.58,2.56,2.56,0,0,0,.49-.91A3.86,3.86,0,0,0,85.32,16.62Z"/><path class="cls-1" d="M97.14,12.13a.47.47,0,0,1,.17,0,.61.61,0,0,1,.14.1.65.65,0,0,1,.15.17l4.29,5.41c0-.17,0-.34,0-.5s0-.32,0-.46V12.11h1.85v9H102.6a1,1,0,0,1-.41-.08.87.87,0,0,1-.32-.27l-4.26-5.38,0,.47c0,.15,0,.29,0,.42v4.84H95.81v-9h1.1Z"/><path class="cls-1" d="M116.05,21.14h-1.62A.75.75,0,0,1,114,21a.68.68,0,0,1-.25-.33l-.53-1.57h-3.43l-.53,1.57A.83.83,0,0,1,109,21a.7.7,0,0,1-.44.14h-1.63l3.49-9h2.15Zm-5.8-3.45h2.47l-.83-2.47c-.06-.16-.12-.35-.19-.56s-.15-.44-.22-.69c-.06.25-.13.49-.2.7s-.14.4-.2.56Z"/><path class="cls-1" d="M124.11,17.5c.08.17.15.34.22.52.07-.18.14-.36.22-.53l.24-.5,2.32-4.56a.52.52,0,0,1,.13-.18.33.33,0,0,1,.14-.1l.18,0h1.84v9h-1.84V16c0-.26,0-.53,0-.82l-2.39,4.64a.8.8,0,0,1-.3.33.86.86,0,0,1-.43.11h-.28a.86.86,0,0,1-.43-.11.8.8,0,0,1-.3-.33l-2.41-4.65c0,.15,0,.29,0,.43s0,.28,0,.4v5.19h-1.84v-9h1.83a.58.58,0,0,1,.19,0,.33.33,0,0,1,.14.1.7.7,0,0,1,.13.18L123.87,17Z"/><path class="cls-1" d="M139.17,12.11v1.61h-3.7v2.11h2.84v1.55h-2.84v2.15h3.7v1.61h-5.81v-9Z"/><path class="cls-1" d="M27.71,9.51,14.94,31.63,2.17,9.51H27.71m.64-1.25H1.54A.89.89,0,0,0,.77,9.59l13.4,23.22a.89.89,0,0,0,1.54,0L29.12,9.59a.89.89,0,0,0-.77-1.33Z"/><path class="cls-1" d="M14.94,0,0,25.88H29.88ZM11.31,10l.84,1.46L8.06,18.54l-.85-1.47ZM8.66,19.58l4.09-7.08,6.74,11.66H11.31Z"/></g></g></g></g></svg>