<svg xmlns="http://www.w3.org/2000/svg" viewBox="0 0 512 512"><defs><style>.cls-1{fill:#e3e4e5;}.cls-2{fill:#573280;}</style></defs><title>Recurso 1</title><g id="Capa_2" data-name="Capa 2"><g id="Layer_1" data-name="Layer 1"><path class="cls-1" d="M256,0C114.84,0,0,114.84,0,256S114.84,512,256,512,512,397.16,512,256,397.16,0,256,0Z"/><path class="cls-2" d="M256,493C125.3,493,19,386.7,19,256S125.3,19,256,19,493,125.3,493,256,386.7,493,256,493Z"/><path class="cls-1" d="M232.91,149.74a9.48,9.48,0,1,0-13.41,13.41L312.35,256,219.5,348.85a9.48,9.48,0,1,0,13.41,13.41l99.55-99.56a9.46,9.46,0,0,0,0-13.4Z"/></g></g></svg>