<svg xmlns="http://www.w3.org/2000/svg" viewBox="0 0 15.6 18.67"><defs><style>.cls-1{fill:#002987;}.cls-2{fill:#0085cc;}.cls-3{fill:#00186a;}</style></defs><title>Recurso 6</title><g id="Capa_2" data-name="Capa 2"><g id="finalizar"><g id="finalizar-registro"><path class="cls-1" d="M14.1,4.82A6.53,6.53,0,0,0,14.15,4a4,4,0,0,0-4-4H3.36A.87.87,0,0,0,2.5.73L0,15.51a.88.88,0,0,0,.86,1H3.34a.88.88,0,0,0,.86-.73l0-.07h0l-.35,2.05a.76.76,0,0,0,.76.89H6.79A.76.76,0,0,0,7.54,18l.62-3.64A1.3,1.3,0,0,1,9.45,13.3H10A5.59,5.59,0,0,0,15.6,7.71,3.54,3.54,0,0,0,14.1,4.82Z"/><path class="cls-2" d="M14.1,4.82A6.35,6.35,0,0,1,7.79,10.4H5.91a.93.93,0,0,0-.91.69L3.87,17.78a.76.76,0,0,0,.76.89H6.79A.76.76,0,0,0,7.54,18l.62-3.64A1.3,1.3,0,0,1,9.45,13.3H10A5.59,5.59,0,0,0,15.6,7.71h0A3.54,3.54,0,0,0,14.1,4.82Z"/><path class="cls-3" d="M5.91,10.4H7.79A6.35,6.35,0,0,0,14.1,4.82a3.52,3.52,0,0,0-2-.65H7.13A1.14,1.14,0,0,0,6,5.13l-1,6A.93.93,0,0,1,5.91,10.4Z"/></g></g></g></svg>