<svg xmlns="http://www.w3.org/2000/svg" viewBox="0 0 46.18 14"><defs><style>.cls-1{fill:#3c58bf;}.cls-2{fill:#293688;}.cls-3{fill:#ffbc00;}.cls-4{fill:#f7981d;}.cls-5{fill:#ed7c00;}.cls-6{fill:#051244;}</style></defs><title>Recurso 5</title><g id="Capa_2" data-name="Capa 2"><g id="finalizar"><g id="finalizar-registro"><polygon class="cls-1" points="16.93 13.63 19.28 0.44 22.94 0.44 20.67 13.63 16.93 13.63"/><polygon class="cls-2" points="16.93 13.63 19.94 0.44 22.94 0.44 20.67 13.63 16.93 13.63"/><path class="cls-1" d="M33.94.59A9.19,9.19,0,0,0,30.57,0c-3.67,0-6.31,1.83-6.31,4.47,0,2,1.83,3,3.3,3.67s1.91,1.1,1.91,1.68c0,.88-1.18,1.32-2.2,1.32a8,8,0,0,1-3.52-.73l-.51-.22-.52,3a11.78,11.78,0,0,0,4.18.74c3.89,0,6.45-1.84,6.45-4.62,0-1.54-1-2.71-3.15-3.67C28.88,5,28.07,4.62,28.07,4s.66-1.17,2.13-1.17A6.74,6.74,0,0,1,33,3.3l.37.15L33.94.59Z"/><path class="cls-2" d="M33.94.59A9.19,9.19,0,0,0,30.57,0c-3.67,0-5.65,1.83-5.65,4.47a3.83,3.83,0,0,0,2.64,3.67c1.47.66,1.91,1.1,1.91,1.68,0,.88-1.18,1.32-2.2,1.32a8,8,0,0,1-3.52-.73l-.51-.22-.52,3a11.78,11.78,0,0,0,4.18.74c3.89,0,6.45-1.84,6.45-4.62,0-1.54-1-2.71-3.15-3.67C28.88,5,28.07,4.62,28.07,4s.66-1.17,2.13-1.17A6.74,6.74,0,0,1,33,3.3l.37.15L33.94.59Z"/><path class="cls-1" d="M40.24.44c-.88,0-1.54.07-1.9,1l-5.5,12.24h4l.73-2.2h4.69l.44,2.2h3.52L43.1.44Zm-1.69,8.8C38.77,8.58,40,5.35,40,5.35s.29-.81.51-1.32l.22,1.25s.74,3.3.88,4H38.55Z"/><path class="cls-2" d="M41.12.44c-.88,0-1.54.07-1.91,1L32.84,13.63h4l.73-2.2h4.69l.44,2.2h3.52L43.1.44Zm-2.57,8.8C38.85,8.5,40,5.35,40,5.35s.29-.81.51-1.32l.22,1.25s.74,3.3.88,4H38.55Z"/><path class="cls-1" d="M10.19,9.68,9.82,7.77A10.59,10.59,0,0,0,4.69,2L8,13.71h4L17.88.51H13.93Z"/><path class="cls-2" d="M10.19,9.68,9.82,7.77A10.59,10.59,0,0,0,4.69,2L8,13.71h4L17.88.51H14.66Z"/><path class="cls-3" d="M0,.44.66.59c4.69,1.1,7.92,3.88,9.16,7.18L8.5,1.54C8.28.66,7.62.44,6.82.44Z"/><path class="cls-4" d="M0,.44H0c4.69,1.1,8.58,4,9.82,7.26L8.58,2.49A1.79,1.79,0,0,0,6.82,1.1Z"/><path class="cls-5" d="M0,.44H0c4.69,1.1,8.58,4,9.82,7.26L8.94,4.84A2.59,2.59,0,0,0,7.4,2.71Z"/><path class="cls-6" d="M13.85,9.24l-2.49-2.5L10.19,9.53,9.9,7.7A10.61,10.61,0,0,0,4.76,1.91l3.3,11.72h4Z"/><polygon class="cls-6" points="20.67 13.63 17.52 10.41 16.93 13.63 20.67 13.63"/><path class="cls-6" d="M29.1,9.09h0c.29.29.44.51.37.81,0,.87-1.18,1.31-2.2,1.31a8,8,0,0,1-3.52-.73l-.51-.22-.52,3A12,12,0,0,0,26.9,14a7.26,7.26,0,0,0,5.35-1.83Z"/><path class="cls-6" d="M33.35,13.63H36.8l.73-2.2h4.69l.44,2.2h3.52L44.93,8.28,40.53,4l.22,1.17s.74,3.3.88,4H38.55C38.85,8.5,40,5.35,40,5.35s.29-.81.51-1.32"/></g></g></g></svg>